PathFileType	4	(X/Y/Z)	25_coords_data.trc
DataRate	CameraRate	NumFrames	NumMarkers	Units	OrigDataRate	OrigDataStartFrame	OrigNumFrames
30.0	30.0	9	21	m	30.0	40	59
Frame#	Time	THUMB_TIP	THUMB_IP	THUMB_MCP	THUMB_CMC	INDEX_TIP	INDEX_DIP	INDEX_PIP	INDEX_MCP	MIDDLE_TIP	MIDDLE_DIP	MIDDLE_PIP	MIDDLE_MCP	RING_TIP	RING_DIP	RING_PIP	RING_MCP	PINKY_TIP	PINKY_DIP	PINKY_PIP	PINKY_MCP	WRIST
X1	Y1	Z1	X2	Y2	Z2	X3	Y3	Z3	X4	Y4	Z4	X5	Y5	Z5	X6	Y6	Z6	X7	Y7	Z7	X8	Y8	Z8	X9	Y9	Z9	X10	Y10	Z10	X11	Y11	Z11	X12	Y12	Z12	X13	Y13	Z13	X14	Y14	Z14	X15	Y15	Z15	X16	Y16	Z16	X17	Y17	Z17	X18	Y18	Z18	X19	Y19	Z19	X20	Y20	Z20	X21	Y21	Z21
39	1.3	0.024630599975585938	-0.04461709976196289	0.908302978515625	0.003721909999847412	-0.034718799591064456	0.9252550048828125	-0.020475299835205078	-0.026409400939941406	0.9470159912109375	-0.04273160171508789	-0.005677599906921387	0.9630120239257812	0.040441200256347655	-0.006816259860992432	0.862677001953125	0.018842899322509765	-0.01289009952545166	0.8693779907226562	-0.004148399829864502	-0.018565999984741212	0.876802978515625	-0.037400901794433596	-0.021339399337768555	0.9036649780273438	0.030816499710083007	0.02003660011291504	0.8511270141601562	0.008334139823913574	0.012767499923706054	0.8559619750976563	-0.0188700008392334	0.005535309791564942	0.8646849975585937	-0.04665420150756836	-7.2458297014236e-05	0.89939697265625	0.019955799102783202	0.03883810043334961	0.8521710205078125	-0.001831740021705627	0.032705799102783206	0.8598770141601563	-0.02666440010070801	0.02594289970397949	0.8711099853515625	-0.05238959884643555	0.01971500015258789	0.903052001953125	-0.010741499900817872	0.059052398681640625	0.85664501953125	-0.02301930046081543	0.05327920150756836	0.873031982421875	-0.03492779922485351	0.04708280181884766	0.8872689819335937	-0.052782901763916014	0.03759420013427734	0.9113410034179688	-0.08015129852294922	0.0064009099006652834	0.9807979736328125
40	1.3333333333333333	0.02338330078125	-0.03833250045776367	0.9049769897460938	0.002879100084304809	-0.029340299606323242	0.9229940185546875	-0.020232400894165038	-0.02214699935913086	0.9457780151367188	-0.04299530029296875	-0.0022205700874328607	0.962677001953125	0.03864889907836914	0.00014933300018310502	0.8620850219726562	0.017195600509643555	-0.006819910049438478	0.8686060180664062	-0.005691460132598877	-0.013514900207519531	0.8758359985351563	-0.03823440170288086	-0.017576099395751953	0.9031749877929688	0.02729450035095215	0.026263099670410156	0.8498179931640625	0.005194570064544678	0.01820400047302246	0.8545850219726563	-0.021555099487304687	0.010046099662780762	0.8638280029296875	-0.04810309982299805	0.003365269899368286	0.8991649780273437	0.01626919937133789	0.04457500076293945	0.851072021484375	-0.005108029842376709	0.0377775993347168	0.8592310180664062	-0.029617700576782226	0.03021910095214844	0.8706129760742187	-0.05413779830932617	0.02306100082397461	0.9031090087890625	-0.014705599784851075	0.06382600021362304	0.856385009765625	-0.026806400299072265	0.05754079818725586	0.872594970703125	-0.03821319961547852	0.050942001342773435	0.8868900146484375	-0.055120601654052734	0.04078779983520508	0.9112589721679687	-0.08062100219726563	0.008550600051879883	0.9811920166015625
41	1.3666666666666667	0.02132379913330078	-0.03364059829711914	0.9017999877929688	0.001105999946594238	-0.025278600692749023	0.9207990112304687	-0.02162150001525879	-0.01871809959411621	0.9444979858398438	-0.043414199829101566	0.000333660006523132	0.9618109741210937	0.036398700714111325	0.005495659828186035	0.861427978515625	0.015094499588012695	-0.002010649919509887	0.8675579833984375	-0.0077576498985290525	-0.009195619583129883	0.8746199951171875	-0.0399807014465332	-0.01405780029296875	0.9025449829101563	0.02404140090942383	0.031239099502563476	0.8482230224609375	0.0022334699630737302	0.022838499069213865	0.853458984375	-0.02445509910583496	0.014321900367736817	0.863072998046875	-0.050051200866699216	0.006844779968261719	0.8988699951171875	0.013894800186157227	0.04944089889526367	0.8511489868164063	-0.00742087984085083	0.04236809921264648	0.8591749877929687	-0.031884300231933595	0.03442630004882812	0.8707269897460937	-0.056116500854492185	0.02647719955444336	0.9031420288085937	-0.016534000396728515	0.06824079895019532	0.857135986328125	-0.02871689987182617	0.06160260009765625	0.873260986328125	-0.040162498474121094	0.054728500366210936	0.8873920288085938	-0.05674610137939453	0.04403499984741211	0.9118489990234375	-0.08098049926757812	0.010787799835205078	0.9816079711914063
42	1.4	0.019194400787353516	-0.030629800796508788	0.8996279907226562	-0.000684364974498748	-0.022630599975585936	0.9193250122070312	-0.022864599227905274	-0.016277900695800783	0.9436430053710938	-0.04439749908447266	0.002806920051574707	0.9619739990234375	0.03402389907836914	0.009253549575805663	0.8607990112304688	0.012641500473022461	0.001570780038833618	0.866676025390625	-0.010173600196838379	-0.005810870170593262	0.8735579833984375	-0.04176139831542969	-0.011153200149536132	0.90202197265625	0.02165019989013672	0.03499819946289062	0.8484030151367188	-0.00011549799889326001	0.026630599975585936	0.8532650146484375	-0.026759300231933594	0.017970399856567384	0.8626489868164062	-0.05185979843139649	0.00991055965423584	0.89877001953125	0.011883899688720704	0.05328820037841797	0.8517730102539063	-0.009416959762573241	0.04623649978637695	0.8594669799804687	-0.033942901611328125	0.03817319869995117	0.870906005859375	-0.05783060073852539	0.029603500366210938	0.9036160278320312	-0.0176914005279541	0.07190950012207031	0.8582529907226563	-0.030120899200439453	0.06506159973144532	0.874156982421875	-0.04159280014038086	0.057969799041748045	0.8881749877929688	-0.05798030090332031	0.04693259811401367	0.9123189697265625	-0.08142919921875	0.012866299629211425	0.9819299926757813
43	1.4333333333333333	0.017789400100708008	-0.028164400100708007	0.8986309814453125	-0.001751999974250793	-0.02039389991760254	0.9186339721679687	-0.02366029930114746	-0.014232999801635742	0.9431069946289062	-0.04511299896240235	0.004659420013427735	0.962010986328125	0.032470298767089845	0.012076299667358398	0.8613400268554687	0.010851699829101563	0.004333280086517334	0.8665339965820312	-0.01194260025024414	-0.003060230016708374	0.8730079956054687	-0.04317430114746094	-0.008529930114746094	0.9019299926757812	0.020167699813842775	0.037747600555419925	0.8492529907226563	-0.001823699951171875	0.029602800369262695	0.8535289916992187	-0.028542200088500978	0.02106329917907715	0.86275	-0.05330400085449219	0.01258899974822998	0.89889501953125	0.010743200302124023	0.056255599975585935	0.8535980224609375	-0.010824899673461914	0.04939189910888672	0.860416015625	-0.03562329864501953	0.04137820053100586	0.8712849731445312	-0.05884220123291015	0.03238069915771485	0.90418798828125	-0.018016000747680665	0.07487819671630859	0.8596519775390625	-0.030726600646972656	0.06812640380859375	0.875114990234375	-0.04242800140380859	0.06091889953613281	0.8889580078125	-0.05871070098876953	0.04960089874267578	0.91314501953125	-0.08166840362548829	0.0148503999710083	0.9823280029296875
44	1.4666666666666666	0.016437200546264647	-0.0264507999420166	0.8978610229492188	-0.002794339895248413	-0.01862030029296875	0.9180540161132813	-0.02448550033569336	-0.012511699676513673	0.9427730102539063	-0.04532379913330078	0.006421339988708496	0.9618839721679687	0.03126189994812012	0.014057900428771973	0.8614509887695313	0.009527070045471191	0.006663060188293457	0.8662769775390625	-0.013359900474548339	-0.00043928900361061	0.8725430297851563	-0.04430530166625977	-0.005796440124511719	0.902073974609375	0.019073600769042968	0.03998870086669922	0.8494810180664063	-0.003085050106048584	0.03224359893798828	0.853677001953125	-0.029920900344848633	0.02405080032348633	0.862823974609375	-0.05410070037841797	0.015491800308227539	0.8993189697265624	0.010222599983215333	0.05851369857788086	0.854219970703125	-0.011405799865722656	0.05204349899291992	0.8609669799804688	-0.03629140090942383	0.04436309814453125	0.871885986328125	-0.059030601501464844	0.035350399017333986	0.9049580078125	-0.017031900405883788	0.07733750152587891	0.8612550048828125	-0.029968299865722657	0.07069450378417969	0.8766519775390625	-0.0420536003112793	0.06363790130615235	0.8903920288085938	-0.058336299896240236	0.0524192008972168	0.914198974609375	-0.08180480194091796	0.017004499435424803	0.9828989868164062
45	1.5	0.015244500160217285	-0.024467599868774413	0.8975479736328125	-0.003699569940567016	-0.016796600341796874	0.9178099975585937	-0.02536709976196289	-0.010812999725341797	0.9425460205078126	-0.046043701171875	0.008112360000610351	0.962447998046875	0.030308599472045897	0.01611910057067871	0.862208984375	0.008632800102233888	0.009145919799804687	0.8665469970703125	-0.014472999572753907	0.002360419988632202	0.8725640258789062	-0.04528900146484375	-0.0028949999809265133	0.9020330200195312	0.018744199752807618	0.042437301635742185	0.8502340087890625	-0.003572949886322021	0.03521910095214844	0.8544199829101562	-0.030546100616455078	0.027433799743652343	0.8633709716796875	-0.05488180160522461	0.0188400993347168	0.9000289916992188	0.010536999702453613	0.06103499984741211	0.8552269897460938	-0.011168499946594239	0.05500849914550781	0.8622000122070312	-0.036262001037597656	0.04762710189819336	0.8730599975585938	-0.05920439910888672	0.03845560073852539	0.9060260009765625	-0.016031999588012696	0.0802864990234375	0.863114990234375	-0.02911050033569336	0.07363670349121093	0.8784760131835937	-0.041537300109863284	0.06655120086669922	0.8918920288085938	-0.05801359939575195	0.05526029968261719	0.9156439819335938	-0.08208350372314453	0.019156999588012695	0.9836010131835937
46	1.5333333333333334	0.01346940040588379	-0.02450429916381836	0.89785498046875	-0.005605979919433594	-0.01661009979248047	0.9179459838867188	-0.027356800079345704	-0.010471699714660644	0.942052001953125	-0.04772539901733398	0.008888310432434082	0.9626909790039062	0.030246599197387695	0.016385400772094726	0.8636950073242188	0.00811178970336914	0.010442000389099121	0.867343017578125	-0.015281499862670899	0.004669239997863769	0.8726279907226563	-0.04672389984130859	5.11108024511e-07	0.901885986328125	0.020223199844360353	0.04372819900512695	0.8526589965820313	-0.0026115601062774657	0.037486499786376956	0.8558670043945312	-0.030240400314331055	0.03084760093688965	0.8643070068359375	-0.05516400146484375	0.022260400772094728	0.9005050048828125	0.012575300216674804	0.06244129943847656	0.8571400146484375	-0.009432820320129395	0.05730699920654297	0.86385498046875	-0.03516510009765625	0.05087129974365234	0.8748179931640625	-0.05876940155029297	0.0416973991394043	0.9071900024414062	-0.013317299842834472	0.08280919647216797	0.8658289794921875	-0.02679010009765625	0.07628939819335938	0.8807020263671875	-0.03948030090332031	0.06936049652099609	0.8939409790039062	-0.05686339950561523	0.05817300033569336	0.917573974609375	-0.08271649932861327	0.021229900360107423	0.9837109985351562
47	1.5666666666666667	0.010883399963378906	-0.025380199432373046	0.8973779907226562	-0.008073860168457032	-0.017260000228881835	0.91760400390625	-0.029714599609375	-0.010598999977111816	0.9416530151367187	-0.04980390167236328	0.009030559539794921	0.96281201171875	0.029564300537109376	0.01577639961242676	0.8641420288085937	0.007061359882354737	0.01095259952545166	0.8675330200195313	-0.01647599983215332	0.006367559909820557	0.8725260009765625	-0.04821260070800781	0.002468889951705932	0.9018460083007812	0.021287599563598634	0.04413999938964844	0.8543709716796875	-0.0019447200298309323	0.03903770065307617	0.857344970703125	-0.029833099365234376	0.03359579849243164	0.8654140014648437	-0.055946998596191407	0.02534480094909668	0.9011370239257812	0.014994899749755859	0.06266450119018555	0.8593369750976563	-0.0073936300277709964	0.0585973014831543	0.866031005859375	-0.03330780029296875	0.05315760040283203	0.8763099975585937	-0.057997501373291016	0.04434939956665039	0.9082349853515626	-0.008859769821166992	0.08413939666748046	0.8694810180664062	-0.0231963996887207	0.07785179901123047	0.8835449829101563	-0.0367041015625	0.07137899780273438	0.8964219970703124	-0.05526029968261719	0.060458000183105466	0.9189990234375	-0.08376339721679688	0.02292519950866699	0.9838070068359375
